HIERARCHY
ROOT Hips
{
	OFFSET 0.000000 0.000000 0.000000
	CHANNELS 6 Xposition Yposition Zposition Zrotation Yrotation Xrotation 
	JOINT LHipJoint
	{
		OFFSET 0.000000 0.000000 0.000000
		CHANNELS 3 Zrotation Yrotation Xrotation
		JOINT LeftUpLeg
		{
			OFFSET 1.363060 -1.794630 0.839290
			CHANNELS 3 Zrotation Yrotation Xrotation
			JOINT LeftLeg
			{
				OFFSET 2.448110 -6.726130 0.000000
				CHANNELS 3 Zrotation Yrotation Xrotation
				JOINT LeftFoot
				{
					OFFSET 2.562200 -7.039590 0.000000
					CHANNELS 3 Zrotation Yrotation Xrotation
					JOINT LeftToeBase
					{
						OFFSET 0.157640 -0.433110 2.322550
						CHANNELS 3 Zrotation Yrotation Xrotation
						End Site
						{
							OFFSET 0.000000 0.000000 0.000000
						}
					}
				}
			}
		}
	}
	JOINT RHipJoint
	{
		OFFSET 0.000000 0.000000 0.000000
		CHANNELS 3 Zrotation Yrotation Xrotation
		JOINT RightUpLeg
		{
			OFFSET -1.305520 -1.794630 0.839290
			CHANNELS 3 Zrotation Yrotation Xrotation
			JOINT RightLeg
			{
				OFFSET -2.542530 -6.985550 0.000000
				CHANNELS 3 Zrotation Yrotation Xrotation
				JOINT RightFoot
				{
					OFFSET -2.568260 -7.056230 0.000000
					CHANNELS 3 Zrotation Yrotation Xrotation
					JOINT RightToeBase
					{
						OFFSET -0.164730 -0.452590 2.363150
						CHANNELS 3 Zrotation Yrotation Xrotation
						End Site
						{
							OFFSET 0.000000 0.000000 0.000000
						}
					}
				}
			}
		}
	}
	JOINT LowerBack
	{
		OFFSET 0.000000 0.000000 0.000000
		CHANNELS 3 Zrotation Yrotation Xrotation
		JOINT Spine
		{
			OFFSET 0.028270 2.035590 -0.193380
			CHANNELS 3 Zrotation Yrotation Xrotation
			JOINT Spine1
			{
				OFFSET 0.056720 2.048850 -0.042750
				CHANNELS 3 Zrotation Yrotation Xrotation
				JOINT Neck
				{
					OFFSET 0.000000 0.000000 0.000000
					CHANNELS 3 Zrotation Yrotation Xrotation
					JOINT Neck1
					{
						OFFSET -0.054170 1.746240 0.172020
						CHANNELS 3 Zrotation Yrotation Xrotation
						JOINT Head
						{
							OFFSET 0.104070 1.761360 -0.123970
							CHANNELS 3 Zrotation Yrotation Xrotation
							End Site
							{
								OFFSET 0.000000 0.000000 0.000000
							}
						}
					}
				}
				JOINT LeftShoulder
				{
					OFFSET 0.000000 0.000000 0.000000
					CHANNELS 3 Zrotation Yrotation Xrotation
					JOINT LeftArm
					{
						OFFSET 3.362410 1.200890 -0.311210
						CHANNELS 3 Zrotation Yrotation Xrotation
						JOINT LeftForeArm
						{
							OFFSET 4.983000 -0.000000 -0.000000
							CHANNELS 3 Zrotation Yrotation Xrotation
							JOINT LeftHand
							{
								OFFSET 3.483560 -0.000000 -0.000000
								CHANNELS 3 Zrotation Yrotation Xrotation
								JOINT LeftFingerBase
								{
									OFFSET 0.000000 0.000000 0.000000
									CHANNELS 3 Zrotation Yrotation Xrotation
									JOINT LeftHandIndex1
									{
										OFFSET 0.715260 -0.000000 -0.000000
										CHANNELS 3 Zrotation Yrotation Xrotation
										End Site
										{
											OFFSET 0.000000 0.000000 0.000000
										}
									}
								}
								JOINT LThumb
								{
									OFFSET 0.000000 0.000000 0.000000
									CHANNELS 3 Zrotation Yrotation Xrotation
									End Site
									{
										OFFSET 0.000000 0.000000 0.000000
									}
								}
							}
						}
					}
				}
				JOINT RightShoulder
				{
					OFFSET 0.000000 0.000000 0.000000
					CHANNELS 3 Zrotation Yrotation Xrotation
					JOINT RightArm
					{
						OFFSET -3.136600 1.374050 -0.404650
						CHANNELS 3 Zrotation Yrotation Xrotation
						JOINT RightForeArm
						{
							OFFSET -5.241900 -0.000000 -0.000000
							CHANNELS 3 Zrotation Yrotation Xrotation
							JOINT RightHand
							{
								OFFSET -3.444170 -0.000000 -0.000000
								CHANNELS 3 Zrotation Yrotation Xrotation
								JOINT RightFingerBase
								{
									OFFSET 0.000000 0.000000 0.000000
									CHANNELS 3 Zrotation Yrotation Xrotation
									JOINT RightHandIndex1
									{
										OFFSET -0.622530 -0.000000 -0.000000
										CHANNELS 3 Zrotation Yrotation Xrotation
										End Site
										{
											OFFSET 0.000000 0.000000 0.000000
										}
									}
								}
								JOINT RThumb
								{
									OFFSET 0.000000 0.000000 0.000000
									CHANNELS 3 Zrotation Yrotation Xrotation
									End Site
									{
										OFFSET 0.000000 0.000000 0.000000
									}
								}
							}
						}
					}
				}
			}
		}
	}
}
MOTION
Frames: 7
Frame Time: 0.008333
-10.916327 17.022483 -2.243528 -149.467509 89.311624 -137.905550 -12.137570 5.510424 1.569503 -5.256735 9.635742 1.648714 -1.265699 1.369745 22.439019 -0.127895 -8.667167 11.279545 -2.381599 0.000000 -75.862900 6.888635 -1.973298 5.726044 16.953352 8.105443 -27.316473 3.735702 1.400113 2.542305 -0.589098 -4.388257 2.859963 -1.839000 -0.000000 -26.361800 2.916211 -6.836090 -8.573208 0.548660 -7.264932 -4.149854 -5.711893 -7.327347 1.799931 10.665474 -20.055285 -9.515094 -3.315154 -0.241267 -0.381553 0.000000 0.000000 0.000000 0.570782 2.520257 0.283337 -61.507358 -12.982977 -4.103371 -1.919541 -55.502537 -0.054853 12.921085 -3.295853 -0.408749 -0.126092 0.293560 0.000000 0.000000 0.000000 0.000000 0.000000 0.000000 0.000000 17.194379 -19.699267 -0.424886 61.152058 -6.265279 -16.994190 1.801265 53.970857 0.005922 -2.707377 5.911226 -0.148451 0.111062 -0.149064 0.000000 0.000000 0.000000 0.000000 0.000000 0.000000 0.000000 
-10.759187 17.045116 -2.234979 -144.705255 88.998554 -133.195659 -12.202348 5.455213 1.523312 -4.679272 9.914943 0.599195 -1.052664 1.483717 24.814237 -0.042368 -9.117279 12.865278 -2.791299 -0.000000 -75.267400 6.859566 -2.087887 5.718169 17.290298 8.078781 -26.805405 3.765160 1.336526 2.945817 -0.553475 -4.024960 2.414496 -1.693101 -0.000000 -23.842501 3.054086 -6.820342 -8.535861 0.570645 -7.272468 -4.144755 -5.734804 -7.336319 1.788441 10.730064 -19.830191 -9.475301 -3.335745 -0.243592 -0.371640 0.000000 0.000000 0.000000 0.610851 2.531163 0.300806 -62.252755 -12.453094 -4.420087 -1.957310 -54.542314 -0.052759 12.843368 -3.291857 -0.404826 -0.123282 0.284426 0.000000 0.000000 0.000000 0.000000 0.000000 0.000000 0.000000 17.305035 -19.482055 -0.442945 61.210501 -5.721426 -17.094821 1.803787 53.623512 0.005475 -2.802613 5.846996 -0.151858 0.110498 -0.149199 0.000000 0.000000 0.000000 0.000000 0.000000 0.000000 0.000000 
-10.605315 17.066895 -2.224560 -141.547491 88.730155 -130.078153 -12.262419 5.396086 1.462686 -4.144114 10.229386 -0.557686 -0.851832 1.592074 27.296270 0.056554 -9.395146 14.304929 -3.154299 -0.000000 -73.754800 6.841192 -2.171501 5.714964 17.583322 8.091714 -26.252253 3.794296 1.295756 3.257029 -0.523986 -3.696600 1.924269 -1.557900 0.000000 -21.257700 3.157609 -6.789178 -8.486674 0.581817 -7.260256 -4.136394 -5.763299 -7.324958 1.777993 10.803029 -19.606436 -9.439919 -3.355290 -0.245743 -0.362979 0.000000 0.000000 0.000000 0.685434 2.549828 0.319821 -62.975214 -11.901290 -4.770334 -1.992452 -53.572925 -0.050678 12.757525 -3.271368 -0.398706 -0.120302 0.275180 0.000000 0.000000 0.000000 0.000000 0.000000 0.000000 0.000000 17.420791 -19.253220 -0.460291 61.324059 -5.149294 -17.111576 1.804610 53.314028 0.005052 -2.879128 5.782523 -0.154162 0.109760 -0.149576 0.000000 0.000000 0.000000 0.000000 0.000000 0.000000 0.000000 
-10.454582 17.087459 -2.212371 -139.935757 88.506361 -128.494245 -12.323295 5.328572 1.392732 -3.672419 10.545036 -1.803292 -0.665012 1.694991 29.857101 0.164410 -9.401704 15.529535 -3.409600 -0.000000 -71.409700 6.823931 -2.231811 5.712780 17.830159 8.115921 -25.668548 3.820914 1.276783 3.469550 -0.503366 -3.422379 1.417194 -1.439800 -0.000000 -18.700600 3.211070 -6.749090 -8.427979 0.579244 -7.232601 -4.124996 -5.796254 -7.297531 1.769378 10.882877 -19.389881 -9.410993 -3.374188 -0.247731 -0.356122 0.000000 0.000000 0.000000 0.783608 2.577453 0.341258 -63.662390 -11.336681 -5.144603 -2.025390 -52.607381 -0.048632 12.667747 -3.237994 -0.391087 -0.117263 0.265918 -0.000000 0.000000 0.000000 0.000000 0.000000 0.000000 0.000000 17.543884 -19.020444 -0.477726 61.483818 -4.551213 -17.036462 1.803397 53.049902 0.004655 -2.942767 5.725183 -0.155864 0.108897 -0.150216 0.000000 0.000000 0.000000 0.000000 0.000000 0.000000 0.000000 
-10.306716 17.106542 -2.198916 -139.573775 88.313016 -128.147293 -12.387216 5.248523 1.316044 -3.262062 10.844343 -3.126348 -0.491769 1.793804 32.474753 0.277030 -9.067433 16.482103 -3.504400 -0.000000 -68.402900 6.801656 -2.276206 5.711413 18.041893 8.136333 -25.058437 3.844318 1.279205 3.568920 -0.495082 -3.227111 0.923332 -1.345300 0.000000 -16.252500 3.220478 -6.703892 -8.362344 0.564870 -7.193931 -4.111294 -5.832753 -7.258590 1.762655 10.965626 -19.182755 -9.389536 -3.392713 -0.249574 -0.351349 0.000000 0.000000 0.000000 0.890230 2.615758 0.366141 -64.305154 -10.768085 -5.532967 -2.056672 -51.657739 -0.046648 12.579534 -3.196736 -0.382765 -0.114257 0.256738 -0.000000 0.000000 0.000000 0.000000 0.000000 0.000000 0.000000 17.671695 -18.787825 -0.495593 61.679756 -3.931015 -16.867229 1.800010 52.834573 0.004286 -2.997704 5.682549 -0.157563 0.107939 -0.151150 0.000000 0.000000 0.000000 0.000000 0.000000 0.000000 0.000000 
-10.161374 17.124006 -2.184567 -140.177455 88.137675 -128.752550 -12.453790 5.154526 1.236016 -2.909947 11.111384 -4.516925 -0.331389 1.890798 35.122931 0.392061 -8.346636 17.120949 -3.401400 0.000000 -64.954400 6.772092 -2.309304 5.710753 18.229751 8.141938 -24.426944 3.864461 1.302258 3.548554 -0.500962 -3.125208 0.463601 -1.277100 0.000000 -13.960800 3.195192 -6.654603 -8.293287 0.541210 -7.146481 -4.096263 -5.872232 -7.210502 1.757551 11.047930 -18.985221 -9.375703 -3.411210 -0.251306 -0.348696 0.000000 0.000000 0.000000 0.990891 2.666978 0.394984 -64.896349 -10.201008 -5.926928 -2.086623 -50.735754 -0.044737 12.498227 -3.152937 -0.374442 -0.111342 0.247699 -0.000000 0.000000 0.000000 0.000000 0.000000 0.000000 0.000000 17.801959 -18.556361 -0.513930 61.902545 -3.293866 -16.606177 1.794692 52.667074 0.003959 -3.046113 5.660410 -0.159360 0.106913 -0.152390 0.000000 0.000000 0.000000 0.000000 0.000000 0.000000 0.000000 
-10.018221 17.139837 -2.169563 -141.526638 87.974930 -130.090666 -12.520459 5.047858 1.156924 -2.618542 11.329547 -5.961058 -0.183478 1.988521 37.768899 0.509343 -7.221451 17.420689 -3.086000 0.000000 -61.290000 6.736998 -2.333549 5.707909 18.400519 8.116661 -23.781504 3.881422 1.343243 3.418206 -0.519448 -3.111140 0.051596 -1.232700 0.000000 -11.900600 3.139937 -6.600542 -8.222580 0.509583 -7.090366 -4.080291 -5.914382 -7.153482 1.754189 11.128949 -18.797868 -9.369768 -3.430069 -0.252959 -0.348258 0.000000 0.000000 0.000000 1.075259 2.735510 0.427580 -65.430619 -9.641131 -6.317514 -2.115357 -49.850124 -0.042913 12.429372 -3.111380 -0.366815 -0.108571 0.238823 -0.000000 0.000000 0.000000 0.000000 0.000000 0.000000 0.000000 17.935963 -18.326782 -0.532751 62.141395 -2.641809 -16.255204 1.787926 52.542422 0.003668 -3.091940 5.662581 -0.161756 0.105871 -0.153921 0.000000 0.000000 0.000000 0.000000 0.000000 0.000000 0.000000 
